<svg xmlns="http://www.w3.org/2000/svg" xmlns:xlink="http://www.w3.org/1999/xlink" width="6912" zoomAndPan="magnify" viewBox="0 0 5184 2592.000001" height="3456" preserveAspectRatio="xMidYMid meet" version="1.0"><defs><g/></defs><path fill="#ffffff" d="M 4947.433594 530.003906 C 4950.027344 556.804688 4927.550781 588.359375 4898.59375 588.359375 C 4864.445312 588.789062 4829.433594 579.710938 4795.71875 574.957031 C 4765.03125 571.066406 4734.34375 566.3125 4703.222656 563.289062 C 4639.683594 556.804688 4576.578125 552.050781 4513.039062 547.726562 C 4494.019531 546.429688 4495.75 515.308594 4514.765625 514.445312 C 4577.441406 511.417969 4639.683594 507.960938 4702.355469 502.773438 C 4733.476562 500.179688 4764.597656 496.292969 4795.71875 492.402344 C 4825.976562 488.941406 4858.394531 480.296875 4889.082031 481.164062 C 4918.042969 482.027344 4943.976562 498.453125 4947.433594 530.003906 Z M 4947.433594 530.003906 " fill-opacity="1" fill-rule="nonzero"/><path fill="#ffffff" d="M 4767.191406 922.90625 C 4785.777344 929.824219 4792.261719 952.730469 4787.074219 969.589844 C 4782.320312 986.445312 4762.003906 1001.574219 4743.851562 995.957031 C 4635.792969 963.105469 4534.21875 905.617188 4442.582031 840.351562 C 4430.914062 832.136719 4443.878906 817.441406 4455.117188 821.332031 C 4506.554688 838.191406 4557.558594 854.613281 4609.425781 871.039062 C 4661.726562 887.464844 4715.757812 903.457031 4767.191406 922.90625 Z M 4767.191406 922.90625 " fill-opacity="1" fill-rule="nonzero"/><path fill="#ffffff" d="M 4727.859375 82.210938 C 4742.554688 98.203125 4745.582031 128.027344 4729.15625 144.453125 C 4721.375 152.230469 4711.433594 158.714844 4701.058594 162.171875 C 4641.84375 192.863281 4580.898438 220.957031 4520.816406 250.347656 C 4457.277344 281.46875 4393.742188 312.160156 4331.929688 346.738281 C 4318.964844 353.652344 4306.859375 336.796875 4318.964844 327.71875 C 4432.640625 241.273438 4544.160156 149.636719 4666.046875 74.863281 C 4686.796875 62.328125 4711.433594 64.488281 4727.859375 82.210938 Z M 4727.859375 82.210938 " fill-opacity="1" fill-rule="nonzero"/><path fill="#ffffff" d="M 4323.285156 613.425781 C 4356.566406 791.941406 4346.195312 985.148438 4258.019531 1147.238281 C 4194.046875 1265.238281 4090.742188 1363.355469 3965.394531 1413.496094 C 3817.570312 1472.710938 3657.644531 1446.777344 3515.4375 1384.535156 C 3366.316406 1318.835938 3232.324219 1215.53125 3111.730469 1107.039062 C 3050.785156 1052.148438 2993.726562 994.226562 2939.699219 932.417969 C 2889.558594 874.929688 2831.640625 810.527344 2805.707031 737.910156 C 2804.410156 734.453125 2806.136719 730.5625 2808.730469 728.835938 C 2811.324219 727.105469 2815.214844 726.671875 2818.242188 729.265625 C 2850.226562 756.066406 2874.863281 788.914062 2902.527344 819.605469 C 2931.488281 851.589844 2960.015625 884.007812 2990.269531 915.128906 C 3048.621094 976.503906 3110.433594 1035.289062 3174.402344 1090.617188 C 3383.171875 1269.992188 3688.761719 1482.652344 3975.769531 1366.382812 C 4100.253906 1316.242188 4198.800781 1209.046875 4254.128906 1088.023438 C 4321.558594 940.628906 4331.066406 773.785156 4308.15625 614.722656 C 4308.15625 613.859375 4308.15625 612.996094 4308.15625 612.128906 C 4309.453125 605.214844 4321.558594 605.214844 4323.285156 613.425781 Z M 4323.285156 613.425781 " fill-opacity="1" fill-rule="nonzero"/><path fill="#ffffff" d="M 4214.792969 1047.824219 C 4214.363281 1047.390625 4213.5 1046.527344 4213.066406 1046.09375 L 4213.066406 1045.664062 C 4213.066406 1045.230469 4212.632812 1044.796875 4212.632812 1044.796875 C 4212.632812 1045.230469 4213.5 1046.09375 4214.792969 1047.824219 Z M 4214.792969 1047.824219 " fill-opacity="1" fill-rule="nonzero"/><path fill="#ffffff" d="M 4293.460938 539.082031 C 4296.917969 545.132812 4286.546875 550.320312 4283.089844 544.703125 C 4209.609375 426.269531 4111.921875 325.558594 4003 239.976562 C 3947.671875 196.320312 3882.835938 152.664062 3808.925781 158.28125 C 3775.210938 160.875 3742.359375 175.140625 3721.613281 202.371094 C 3711.671875 215.339844 3704.324219 231.332031 3702.59375 247.753906 C 3700.867188 260.722656 3704.324219 270.664062 3698.273438 281.902344 C 3710.808594 290.980469 3722.476562 300.921875 3732.417969 312.160156 C 3735.878906 315.617188 3733.714844 321.234375 3728.53125 320.804688 C 3676.230469 314.320312 3623.496094 285.792969 3575.949219 264.613281 C 3527.972656 243.433594 3480.859375 220.523438 3432.878906 198.914062 C 3386.632812 178.164062 3334.332031 160.875 3283.328125 172.546875 C 3238.375 182.921875 3199.472656 213.175781 3164.03125 240.839844 C 3087.957031 300.921875 3015.339844 369.644531 2954.828125 445.289062 C 2924.136719 483.757812 2894.3125 524.386719 2868.8125 566.746094 C 2849.792969 597.433594 2834.664062 630.285156 2816.945312 661.835938 C 2811.324219 672.210938 2805.273438 682.585938 2798.359375 692.527344 C 2797.0625 694.6875 2794.46875 695.550781 2792.308594 695.121094 C 2788.417969 694.253906 2784.957031 690.796875 2786.253906 686.90625 C 2799.65625 637.632812 2826.886719 591.382812 2851.523438 546.863281 C 2877.023438 501.046875 2904.6875 457.390625 2934.511719 414.597656 C 2995.023438 328.152344 3063.75 248.1875 3144.148438 179.460938 C 3180.453125 148.339844 3223.679688 122.40625 3270.792969 111.601562 C 3324.390625 99.5 3377.984375 110.304688 3428.558594 130.1875 C 3483.882812 152.230469 3535.320312 183.785156 3586.324219 213.609375 C 3610.097656 227.441406 3636.464844 241.703125 3661.53125 256.832031 C 3661.101562 237.8125 3668.449219 216.636719 3675.363281 202.371094 C 3690.058594 171.683594 3716.425781 147.042969 3747.546875 133.214844 C 3818.433594 101.660156 3899.261719 128.027344 3961.074219 168.222656 C 4098.957031 257.695312 4218.683594 393.851562 4293.460938 539.082031 Z M 4293.460938 539.082031 " fill-opacity="1" fill-rule="nonzero"/><path fill="#ffffff" d="M 4275.308594 590.949219 C 4278.765625 591.382812 4281.792969 594.410156 4280.925781 598.300781 C 4280.0625 600.460938 4280.0625 602.621094 4279.199219 605.214844 C 4245.914062 739.640625 4196.207031 880.550781 4108.898438 989.039062 C 4038.011719 1077.648438 3942.054688 1139.890625 3829.242188 1158.476562 C 3712.535156 1177.925781 3592.808594 1152.859375 3482.585938 1113.957031 C 3361.128906 1070.734375 3247.882812 1007.625 3141.554688 935.011719 C 3088.820312 898.703125 3037.382812 860.234375 2987.675781 820.46875 C 2938.402344 781.136719 2880.484375 740.9375 2842.878906 689.933594 C 2840.285156 686.042969 2840.285156 681.289062 2842.445312 677.832031 C 2844.175781 674.371094 2848.066406 671.347656 2851.957031 671.347656 C 2883.078125 634.175781 2928.894531 604.78125 2969.523438 579.714844 C 3013.179688 553.347656 3058.996094 531.300781 3104.8125 509.691406 C 3278.570312 427.566406 3480.859375 392.554688 3671.90625 394.285156 C 3779.535156 395.582031 3888.023438 410.707031 3990.898438 443.125 C 4089.015625 473.382812 4175.894531 520.496094 4258.882812 579.28125 C 4264.5 582.738281 4269.6875 587.0625 4275.308594 590.949219 Z M 4111.492188 928.960938 C 4128.347656 904.753906 4143.476562 880.117188 4157.308594 854.183594 C 4143.476562 847.699219 4132.671875 833.867188 4121.433594 823.492188 C 4108.464844 811.824219 4095.066406 800.152344 4081.234375 788.914062 C 4055.300781 768.167969 4028.5 748.285156 4000.839844 730.132812 C 3971.445312 710.679688 3940.757812 692.957031 3909.203125 676.964844 C 3893.644531 669.1875 3877.652344 661.40625 3861.226562 654.488281 C 3849.554688 649.304688 3833.5625 646.710938 3826.648438 635.472656 C 3747.546875 649.734375 3667.585938 657.515625 3587.1875 659.246094 C 3492.097656 661.40625 3396.574219 654.488281 3302.34375 639.792969 C 3256.097656 632.878906 3209.847656 622.503906 3164.03125 610.402344 C 3147.171875 606.078125 3129.882812 601.324219 3113.027344 596.570312 C 3114.753906 598.730469 3115.1875 601.757812 3112.59375 603.484375 C 3084.066406 629.851562 3058.132812 658.8125 3035.65625 690.367188 C 3024.417969 706.359375 3013.613281 722.78125 3004.101562 739.640625 C 2999.347656 747.851562 2994.59375 756.496094 2989.40625 764.710938 C 2988.109375 766.871094 2986.8125 768.601562 2985.515625 770.328125 C 2995.457031 778.972656 3005.398438 787.1875 3015.773438 795.398438 C 3068.503906 837.324219 3122.96875 877.523438 3179.15625 915.128906 C 3282.03125 983.421875 3392.25 1042.636719 3508.953125 1083.265625 C 3615.285156 1120.441406 3732.851562 1141.621094 3844.800781 1118.277344 C 3956.75 1094.9375 4046.222656 1020.59375 4111.492188 928.960938 Z M 3938.164062 591.816406 C 4001.703125 576.253906 4063.945312 557.238281 4124.890625 534.761719 C 4062.214844 509.691406 3997.8125 488.511719 3933.839844 472.519531 C 3929.519531 471.652344 3925.195312 470.355469 3920.875 469.492188 C 3920.875 469.492188 3920.875 469.492188 3920.441406 469.492188 C 3927.359375 483.324219 3932.976562 498.019531 3936.003906 513.148438 C 3941.191406 536.488281 3942.917969 561.558594 3939.027344 584.898438 C 3939.027344 586.628906 3939.027344 589.222656 3938.164062 591.816406 Z M 3913.957031 597.433594 C 3913.957031 592.246094 3915.253906 587.0625 3915.6875 583.171875 C 3919.144531 559.398438 3919.578125 536.058594 3914.824219 512.285156 C 3911.796875 495.859375 3906.179688 479.867188 3899.695312 464.738281 C 3822.757812 448.3125 3744.089844 440.53125 3664.992188 439.667969 C 3664.992188 440.53125 3664.992188 441.398438 3664.558594 442.695312 C 3664.558594 451.339844 3663.695312 460.414062 3663.261719 469.058594 C 3662.398438 486.78125 3662.398438 504.070312 3663.261719 521.792969 C 3664.125 539.945312 3665.855469 558.101562 3668.449219 576.253906 C 3671.042969 593.542969 3676.230469 610.832031 3677.957031 628.554688 C 3678.390625 629.851562 3677.527344 631.582031 3677.09375 632.878906 C 3677.527344 632.878906 3677.527344 632.878906 3677.527344 632.878906 C 3757.488281 626.828125 3836.589844 615.15625 3913.957031 597.433594 Z M 3652.023438 634.175781 C 3644.242188 617.316406 3641.648438 597.003906 3639.054688 578.847656 C 3636.464844 560.261719 3635.167969 541.242188 3634.734375 522.226562 C 3634.734375 503.207031 3635.597656 484.1875 3638.191406 465.601562 C 3639.054688 456.957031 3640.351562 447.878906 3642.515625 439.667969 L 3642.515625 439.234375 C 3557.363281 439.667969 3471.78125 447.878906 3387.925781 462.578125 C 3390.519531 485.917969 3389.65625 509.257812 3387.496094 532.597656 C 3385.765625 549.457031 3383.171875 566.3125 3378.851562 582.738281 C 3376.257812 594.839844 3373.230469 611.699219 3365.453125 622.9375 C 3365.453125 622.9375 3365.882812 622.9375 3365.882812 622.9375 C 3439.796875 633.308594 3514.574219 637.632812 3589.347656 636.769531 C 3610.960938 636.335938 3631.277344 635.472656 3652.023438 634.175781 Z M 3357.238281 577.121094 C 3360.695312 561.992188 3363.722656 547.296875 3365.882812 532.167969 C 3368.910156 510.121094 3369.339844 488.078125 3369.339844 466.035156 C 3361.992188 467.332031 3354.214844 468.628906 3346.867188 470.355469 C 3259.984375 487.648438 3170.082031 510.988281 3089.253906 548.160156 C 3084.066406 550.320312 3079.3125 552.914062 3074.125 555.507812 C 3106.109375 563.71875 3137.230469 574.957031 3168.785156 583.171875 C 3214.167969 595.273438 3260.417969 604.78125 3306.667969 613.425781 C 3320.066406 615.589844 3333.035156 617.75 3346.433594 619.910156 L 3346.867188 619.910156 C 3346 606.078125 3353.78125 590.519531 3357.238281 577.121094 Z M 3357.238281 577.121094 " fill-opacity="1" fill-rule="nonzero"/><path fill="#ffffff" d="M 4219.117188 1066.410156 C 4218.683594 1068.570312 4217.820312 1070.734375 4216.957031 1072.460938 C 4216.957031 1072.894531 4216.523438 1072.894531 4216.523438 1073.328125 C 4215.226562 1076.351562 4213.496094 1078.945312 4210.472656 1080.675781 C 4208.3125 1083.269531 4205.71875 1084.996094 4202.261719 1085.859375 C 4200.097656 1086.292969 4197.9375 1086.726562 4195.777344 1087.15625 C 4193.183594 1087.15625 4191.023438 1087.15625 4188.859375 1086.726562 C 4186.699219 1085.859375 4184.539062 1085.429688 4182.378906 1084.5625 C 4179.351562 1083.269531 4176.757812 1081.539062 4174.597656 1078.511719 C 4172.867188 1077.214844 4171.570312 1075.488281 4170.707031 1073.328125 C 4169.410156 1071.597656 4168.546875 1069.4375 4168.546875 1067.273438 C 4167.25 1064.25 4167.25 1060.792969 4168.113281 1057.332031 C 4168.976562 1055.171875 4169.410156 1053.011719 4169.84375 1050.851562 C 4171.140625 1048.6875 4172.003906 1046.960938 4173.300781 1045.230469 C 4175.460938 1042.636719 4178.054688 1040.476562 4181.082031 1039.179688 C 4183.242188 1037.882812 4184.96875 1037.019531 4187.132812 1037.019531 C 4189.292969 1036.585938 4191.453125 1036.152344 4193.613281 1036.585938 C 4197.074219 1036.585938 4200.097656 1037.449219 4203.554688 1038.746094 C 4205.285156 1040.042969 4207.445312 1040.910156 4209.175781 1042.207031 C 4209.609375 1042.207031 4209.609375 1042.636719 4210.039062 1042.636719 C 4210.039062 1043.070312 4210.90625 1043.933594 4211.769531 1044.796875 L 4211.769531 1045.230469 C 4213.496094 1047.824219 4216.523438 1051.714844 4216.523438 1053.011719 C 4216.957031 1053.875 4216.957031 1055.171875 4217.386719 1056.035156 C 4219.117188 1060.359375 4219.550781 1062.089844 4219.117188 1066.410156 Z M 4219.117188 1066.410156 " fill-opacity="1" fill-rule="nonzero"/><path fill="#ffffff" d="M 4164.65625 1119.574219 C 4171.140625 1132.109375 4164.65625 1141.1875 4158.171875 1152.425781 C 4152.554688 1161.503906 4146.5 1171.011719 4140.449219 1180.089844 C 4128.347656 1196.945312 4114.949219 1212.9375 4100.683594 1228.066406 C 4072.589844 1257.457031 4037.578125 1289.011719 3998.246094 1301.546875 C 3991.328125 1303.707031 3983.546875 1295.0625 3989.601562 1289.445312 C 4004.726562 1275.613281 4021.152344 1263.941406 4036.714844 1250.976562 C 4052.273438 1238.441406 4066.105469 1224.609375 4079.074219 1209.914062 C 4092.472656 1195.214844 4105.007812 1178.792969 4115.378906 1162.367188 C 4121 1153.722656 4126.1875 1145.078125 4130.941406 1136 C 4136.128906 1126.058594 4140.019531 1115.683594 4152.550781 1114.386719 C 4156.875 1113.523438 4162.496094 1115.683594 4164.65625 1119.574219 Z M 4164.65625 1119.574219 " fill-opacity="1" fill-rule="nonzero"/><path fill="#ffffff" d="M 3424.234375 245.164062 C 3430.285156 250.78125 3422.9375 258.992188 3416.023438 254.671875 C 3377.554688 228.738281 3328.277344 221.820312 3284.191406 237.382812 C 3266.902344 243.433594 3251.339844 252.078125 3237.078125 263.75 C 3230.59375 268.933594 3224.542969 274.988281 3218.921875 281.46875 C 3213.304688 287.953125 3208.550781 296.167969 3202.5 302.21875 C 3195.582031 309.566406 3183.914062 313.886719 3176.132812 305.675781 C 3169.214844 298.757812 3170.511719 288.816406 3174.835938 280.605469 C 3183.046875 264.179688 3197.742188 249.484375 3211.574219 238.246094 C 3273.816406 188.539062 3364.585938 192.863281 3424.234375 245.164062 Z M 3424.234375 245.164062 " fill-opacity="1" fill-rule="nonzero"/><path fill="#ffffff" d="M 3149.332031 345.007812 C 3149.332031 347.601562 3148.902344 349.332031 3147.605469 351.925781 C 3146.738281 353.222656 3146.308594 354.519531 3145.441406 355.816406 C 3145.011719 355.816406 3145.011719 356.246094 3145.011719 356.679688 C 3142.851562 358.839844 3140.257812 360.570312 3137.664062 361.867188 C 3134.636719 363.164062 3131.613281 363.164062 3128.585938 362.730469 C 3125.992188 362.730469 3124.265625 361.867188 3122.101562 360.136719 C 3119.941406 358.839844 3118.644531 357.542969 3117.347656 355.816406 C 3115.617188 353.222656 3114.324219 350.628906 3114.324219 347.601562 C 3114.324219 346.304688 3114.324219 344.578125 3114.324219 342.847656 C 3114.753906 339.820312 3116.484375 336.796875 3118.210938 334.636719 C 3120.375 332.472656 3122.535156 330.746094 3125.558594 329.449219 C 3125.992188 329.449219 3126.425781 329.015625 3126.425781 329.015625 C 3128.585938 328.152344 3130.746094 327.71875 3133.339844 328.152344 C 3135.933594 328.152344 3138.09375 328.582031 3140.257812 329.449219 C 3141.554688 330.3125 3142.851562 331.175781 3144.148438 331.609375 C 3145.011719 332.90625 3145.875 333.769531 3147.171875 334.636719 C 3148.46875 336.796875 3149.332031 338.523438 3149.765625 340.6875 C 3149.332031 341.984375 3149.765625 343.28125 3149.332031 345.007812 Z M 3149.332031 345.007812 " fill-opacity="1" fill-rule="nonzero"/><g fill="#ffffff" fill-opacity="1"><g transform="translate(605.280812, 1150.720614)"><g><path d="M 348.0625 4.5 C 342.050781 4.5 330.785156 4.125 314.265625 3.375 C 297.742188 2.625 284.601562 1.5 274.84375 0 C 267.332031 -1.5 260.757812 -4.875 255.125 -10.125 C 249.5 -15.382812 246.6875 -21.769531 246.6875 -29.28125 C 246.6875 -63.070312 248.375 -104.75 251.75 -154.3125 C 255.132812 -203.875 259.828125 -260.570312 265.828125 -324.40625 C 268.085938 -337.925781 263.207031 -346.5625 251.1875 -350.3125 C 221.15625 -360.832031 192.054688 -380.921875 163.890625 -410.578125 C 135.734375 -440.242188 110.578125 -475.164062 88.421875 -515.34375 C 66.265625 -555.519531 48.613281 -596.820312 35.46875 -639.25 C 22.332031 -681.675781 15.390625 -720.535156 14.640625 -755.828125 C 13.140625 -774.597656 22.523438 -785.863281 42.796875 -789.625 C 54.816406 -791.125 67.019531 -792.0625 79.40625 -792.4375 C 91.800781 -792.8125 102.503906 -793 111.515625 -793 C 119.773438 -793 129.722656 -792.8125 141.359375 -792.4375 C 153.003906 -792.0625 164.082031 -791.125 174.59375 -789.625 C 191.863281 -785.863281 200.875 -776.476562 201.625 -761.46875 C 206.882812 -727.664062 214.394531 -691.988281 224.15625 -654.4375 C 233.914062 -616.894531 245.175781 -581.601562 257.9375 -548.5625 C 270.707031 -515.519531 284.789062 -488.671875 300.1875 -468.015625 C 315.582031 -447.367188 331.164062 -437.046875 346.9375 -437.046875 C 362.707031 -437.046875 378.476562 -447.742188 394.25 -469.140625 C 410.019531 -490.546875 424.660156 -517.957031 438.171875 -551.375 C 451.691406 -584.800781 463.144531 -620.097656 472.53125 -657.265625 C 481.914062 -694.441406 488.113281 -729.175781 491.125 -761.46875 C 491.875 -776.476562 500.882812 -785.863281 518.15625 -789.625 C 528.664062 -791.125 539.738281 -792.0625 551.375 -792.4375 C 563.019531 -792.8125 572.597656 -793 580.109375 -793 C 589.117188 -793 600.191406 -792.8125 613.328125 -792.4375 C 626.472656 -792.0625 639.054688 -791.125 651.078125 -789.625 C 670.597656 -785.863281 680.359375 -774.597656 680.359375 -755.828125 C 679.609375 -719.785156 672.660156 -680.171875 659.515625 -636.984375 C 646.378906 -593.804688 628.734375 -551.753906 606.578125 -510.828125 C 584.421875 -469.898438 559.257812 -434.789062 531.09375 -405.5 C 502.9375 -376.21875 473.84375 -357.445312 443.8125 -349.1875 C 431.039062 -345.4375 425.785156 -336.800781 428.046875 -323.28125 C 434.046875 -259.445312 438.546875 -203.125 441.546875 -154.3125 C 444.554688 -105.507812 446.0625 -63.832031 446.0625 -29.28125 C 446.0625 -21.769531 443.242188 -15.382812 437.609375 -10.125 C 431.984375 -4.875 425.039062 -1.5 416.78125 0 C 407.769531 1.5 395.566406 2.625 380.171875 3.375 C 364.773438 4.125 354.070312 4.5 348.0625 4.5 Z M 348.0625 4.5 "/></g></g></g><g fill="#ffffff" fill-opacity="1"><g transform="translate(1299.157674, 1150.720614)"><g><path d="M 335.671875 9.015625 C 275.597656 9.015625 221.71875 -2.4375 174.03125 -25.34375 C 126.34375 -48.25 88.796875 -82.789062 61.390625 -128.96875 C 33.984375 -175.15625 20.28125 -232.789062 20.28125 -301.875 C 20.28125 -369.46875 33.796875 -427.101562 60.828125 -474.78125 C 87.859375 -522.46875 125.21875 -558.890625 172.90625 -584.046875 C 220.59375 -609.203125 274.847656 -621.78125 335.671875 -621.78125 C 396.492188 -621.78125 450.375 -609.203125 497.3125 -584.046875 C 544.25 -558.890625 581.234375 -522.46875 608.265625 -474.78125 C 635.296875 -427.101562 648.8125 -369.46875 648.8125 -301.875 C 648.8125 -232.789062 635.296875 -175.15625 608.265625 -128.96875 C 581.234375 -82.789062 544.0625 -48.25 496.75 -25.34375 C 449.4375 -2.4375 395.742188 9.015625 335.671875 9.015625 Z M 335.671875 -123.90625 C 379.972656 -123.90625 416.578125 -139.675781 445.484375 -171.21875 C 474.398438 -202.757812 488.859375 -248.191406 488.859375 -307.515625 C 488.859375 -363.835938 474.59375 -408.140625 446.0625 -440.421875 C 417.53125 -472.710938 380.734375 -488.859375 335.671875 -488.859375 C 289.867188 -488.859375 252.882812 -472.710938 224.71875 -440.421875 C 196.5625 -408.140625 182.484375 -363.835938 182.484375 -307.515625 C 182.484375 -248.191406 196.9375 -202.757812 225.84375 -171.21875 C 254.757812 -139.675781 291.367188 -123.90625 335.671875 -123.90625 Z M 335.671875 -123.90625 "/></g></g></g><g fill="#ffffff" fill-opacity="1"><g transform="translate(1968.253087, 1150.720614)"><g><path d="M 277.09375 9.015625 C 191.488281 9.015625 128.785156 -18.015625 88.984375 -72.078125 C 49.179688 -126.148438 29.28125 -199.375 29.28125 -291.75 C 29.28125 -334.550781 30.59375 -378.476562 33.21875 -423.53125 C 35.851562 -468.59375 39.800781 -521.160156 45.0625 -581.234375 C 45.8125 -599.253906 54.820312 -610.144531 72.09375 -613.90625 C 81.101562 -615.40625 91.238281 -616.53125 102.5 -617.28125 C 113.769531 -618.03125 122.03125 -618.40625 127.28125 -618.40625 C 134.789062 -618.40625 145.867188 -618.03125 160.515625 -617.28125 C 175.160156 -616.53125 187.738281 -615.40625 198.25 -613.90625 C 205.757812 -612.394531 212.140625 -609.007812 217.390625 -603.75 C 222.648438 -598.5 224.53125 -591.367188 223.03125 -582.359375 C 219.28125 -556.078125 215.335938 -527.351562 211.203125 -496.1875 C 207.078125 -465.019531 203.695312 -434.414062 201.0625 -404.375 C 198.4375 -374.34375 197.125 -348.4375 197.125 -326.65625 C 197.125 -266.582031 208.765625 -219.460938 232.046875 -185.296875 C 255.328125 -151.128906 292.875 -134.046875 344.6875 -134.046875 C 385.238281 -134.046875 417.90625 -152.253906 442.6875 -188.671875 C 467.46875 -225.097656 479.859375 -273.722656 479.859375 -334.546875 C 479.859375 -367.585938 478.164062 -406.632812 474.78125 -451.6875 C 471.40625 -496.75 465.960938 -539.929688 458.453125 -581.234375 C 456.953125 -590.242188 458.828125 -597.5625 464.078125 -603.1875 C 469.335938 -608.820312 475.347656 -612.394531 482.109375 -613.90625 C 490.367188 -615.40625 501.253906 -616.53125 514.765625 -617.28125 C 528.285156 -618.03125 539.550781 -618.40625 548.5625 -618.40625 C 559.082031 -618.40625 569.972656 -618.03125 581.234375 -617.28125 C 592.492188 -616.53125 603.007812 -615.40625 612.78125 -613.90625 C 628.539062 -611.644531 637.550781 -600.753906 639.8125 -581.234375 C 644.3125 -515.898438 647.6875 -458.640625 649.9375 -409.453125 C 652.195312 -360.265625 653.890625 -315.207031 655.015625 -274.28125 C 656.140625 -233.351562 656.515625 -193.550781 656.140625 -154.875 C 655.765625 -116.207031 655.578125 -74.34375 655.578125 -29.28125 C 655.578125 -12.757812 648.066406 -2.625 633.046875 1.125 C 625.535156 2.625 616.710938 3.75 606.578125 4.5 C 596.441406 5.25 586.492188 5.625 576.734375 5.625 C 566.960938 5.625 556.445312 5.0625 545.1875 3.9375 C 533.925781 2.8125 523.035156 1.875 512.515625 1.125 C 505.003906 -0.375 498.804688 -3.9375 493.921875 -9.5625 C 489.046875 -15.195312 487.359375 -22.144531 488.859375 -30.40625 C 490.367188 -40.925781 491.3125 -51.066406 491.6875 -60.828125 C 492.0625 -70.585938 492.25 -79.222656 492.25 -86.734375 C 492.25 -99.503906 489.804688 -106.265625 484.921875 -107.015625 C 480.046875 -107.765625 474.601562 -102.878906 468.59375 -92.359375 C 444.5625 -57.066406 416.960938 -31.347656 385.796875 -15.203125 C 354.628906 0.941406 318.394531 9.015625 277.09375 9.015625 Z M 277.09375 9.015625 "/></g></g></g><g fill="#ffffff" fill-opacity="1"><g transform="translate(99.785716, 2212.590906)"><g><path d="M 377.34375 9.015625 C 345.0625 9.015625 308.644531 6.570312 268.09375 1.6875 C 227.539062 -3.1875 187.550781 -10.128906 148.125 -19.140625 C 108.695312 -28.160156 73.585938 -37.925781 42.796875 -48.4375 C 30.035156 -52.9375 23.65625 -64.203125 23.65625 -82.234375 C 23.65625 -107.015625 23.84375 -131.609375 24.21875 -156.015625 C 24.59375 -180.421875 25.15625 -205.015625 25.90625 -229.796875 C 25.90625 -245.554688 31.160156 -255.3125 41.671875 -259.0625 C 52.191406 -262.820312 61.582031 -259.445312 69.84375 -248.9375 C 107.382812 -208.382812 152.625 -179.097656 205.5625 -161.078125 C 258.507812 -143.054688 313.894531 -134.046875 371.71875 -134.046875 C 421.28125 -134.046875 460.890625 -141.363281 490.546875 -156 C 520.210938 -170.644531 535.046875 -192.238281 535.046875 -220.78125 C 535.046875 -242.550781 526.222656 -260.945312 508.578125 -275.96875 C 490.929688 -290.988281 467.460938 -304.316406 438.171875 -315.953125 C 408.890625 -327.597656 376.785156 -338.675781 341.859375 -349.1875 C 306.941406 -359.695312 272.210938 -371.144531 237.671875 -383.53125 C 203.128906 -395.925781 171.210938 -411.132812 141.921875 -429.15625 C 112.640625 -447.1875 89.175781 -469.15625 71.53125 -495.0625 C 53.882812 -520.96875 45.0625 -552.320312 45.0625 -589.125 C 45.0625 -636.425781 59.703125 -675.472656 88.984375 -706.265625 C 118.273438 -737.054688 158.078125 -759.957031 208.390625 -774.96875 C 258.703125 -789.988281 315.019531 -797.5 377.34375 -797.5 C 420.15625 -797.5 464.835938 -793.367188 511.390625 -785.109375 C 557.953125 -776.847656 599.253906 -764.835938 635.296875 -749.078125 C 648.816406 -741.566406 655.578125 -730.675781 655.578125 -716.40625 L 655.578125 -590.25 C 655.578125 -575.976562 650.507812 -566.398438 640.375 -561.515625 C 630.238281 -556.640625 621.039062 -559.082031 612.78125 -568.84375 C 581.238281 -597.375 545.566406 -618.960938 505.765625 -633.609375 C 465.960938 -648.253906 425.785156 -655.578125 385.234375 -655.578125 C 357.453125 -655.578125 330.984375 -652.757812 305.828125 -647.125 C 280.671875 -641.5 260.207031 -633.050781 244.4375 -621.78125 C 228.664062 -610.519531 220.78125 -595.878906 220.78125 -577.859375 C 220.78125 -557.578125 229.789062 -540.300781 247.8125 -526.03125 C 265.832031 -511.769531 289.484375 -499.003906 318.765625 -487.734375 C 348.054688 -476.472656 380.347656 -465.207031 415.640625 -453.9375 C 450.941406 -442.675781 486.050781 -430.472656 520.96875 -417.328125 C 555.882812 -404.191406 587.984375 -388.425781 617.265625 -370.03125 C 646.554688 -351.632812 670.210938 -329.664062 688.234375 -304.125 C 706.265625 -278.59375 715.28125 -247.804688 715.28125 -211.765625 C 715.28125 -142.679688 685.238281 -88.613281 625.15625 -49.5625 C 565.082031 -10.507812 482.476562 9.015625 377.34375 9.015625 Z M 377.34375 9.015625 "/></g></g></g><g fill="#ffffff" fill-opacity="1"><g transform="translate(837.592958, 2212.590906)"><g><path d="M 110.390625 263.578125 C 105.128906 263.578125 96.113281 263.015625 83.34375 261.890625 C 70.582031 260.765625 60.070312 259.828125 51.8125 259.078125 C 36.039062 256.828125 28.15625 247.441406 28.15625 230.921875 C 28.15625 184.359375 28.34375 128.410156 28.71875 63.078125 C 29.09375 -2.253906 30.21875 -72.28125 32.09375 -147 C 33.976562 -221.71875 36.234375 -296.4375 38.859375 -371.15625 C 41.484375 -445.875 45.050781 -515.898438 49.5625 -581.234375 C 51.0625 -600.003906 60.070312 -610.519531 76.59375 -612.78125 C 85.601562 -614.28125 96.488281 -615.40625 109.25 -616.15625 C 122.019531 -616.90625 131.035156 -617.28125 136.296875 -617.28125 C 141.554688 -617.28125 151.503906 -616.90625 166.140625 -616.15625 C 180.785156 -615.40625 192.238281 -614.28125 200.5 -612.78125 C 208.007812 -612.019531 214.203125 -608.820312 219.078125 -603.1875 C 223.960938 -597.5625 225.65625 -590.242188 224.15625 -581.234375 C 222.65625 -573.722656 221.15625 -565.835938 219.65625 -557.578125 C 218.15625 -549.316406 217.023438 -541.804688 216.265625 -535.046875 C 215.515625 -523.785156 217.769531 -517.398438 223.03125 -515.890625 C 228.289062 -514.390625 233.546875 -518.523438 238.796875 -528.296875 C 259.078125 -556.078125 285.738281 -578.601562 318.78125 -595.875 C 351.820312 -613.144531 385.238281 -621.78125 419.03125 -621.78125 C 466.34375 -621.78125 508.207031 -610.140625 544.625 -586.859375 C 581.039062 -563.585938 609.570312 -529.046875 630.21875 -483.234375 C 650.875 -437.421875 661.203125 -379.972656 661.203125 -310.890625 C 661.203125 -244.054688 650.125 -186.609375 627.96875 -138.546875 C 605.820312 -90.484375 575.785156 -53.875 537.859375 -28.71875 C 499.941406 -3.5625 457.328125 9.015625 410.015625 9.015625 C 370.210938 9.015625 333.039062 -0.179688 298.5 -18.578125 C 263.957031 -36.984375 237.300781 -62.332031 218.53125 -94.625 C 213.269531 -104.382812 208.195312 -108.320312 203.3125 -106.4375 C 198.4375 -104.5625 195.625 -97.992188 194.875 -86.734375 C 194.125 -65.703125 193.9375 -40.921875 194.3125 -12.390625 C 194.6875 16.140625 195.4375 45.425781 196.5625 75.46875 C 197.6875 105.507812 199.1875 134.046875 201.0625 161.078125 C 202.9375 188.109375 205.003906 211.015625 207.265625 229.796875 C 208.765625 238.054688 206.695312 244.625 201.0625 249.5 C 195.4375 254.382812 188.867188 257.578125 181.359375 259.078125 C 173.097656 259.828125 160.707031 260.765625 144.1875 261.890625 C 127.664062 263.015625 116.398438 263.578125 110.390625 263.578125 Z M 350.3125 -126.15625 C 394.625 -126.15625 430.859375 -142.113281 459.015625 -174.03125 C 487.171875 -205.945312 501.25 -249.691406 501.25 -305.265625 C 501.25 -363.085938 486.984375 -408.140625 458.453125 -440.421875 C 429.921875 -472.710938 393.875 -488.859375 350.3125 -488.859375 C 308.257812 -488.859375 272.585938 -472.710938 243.296875 -440.421875 C 214.015625 -408.140625 199.375 -363.085938 199.375 -305.265625 C 199.375 -249.691406 213.640625 -205.945312 242.171875 -174.03125 C 270.710938 -142.113281 306.757812 -126.15625 350.3125 -126.15625 Z M 350.3125 -126.15625 "/></g></g></g><g fill="#ffffff" fill-opacity="1"><g transform="translate(1519.079276, 2212.590906)"><g><path d="M 348.0625 9.015625 C 281.976562 9.015625 224.34375 -3.5625 175.15625 -28.71875 C 125.96875 -53.875 87.859375 -90.484375 60.828125 -138.546875 C 33.796875 -186.609375 20.28125 -244.804688 20.28125 -313.140625 C 20.28125 -379.222656 33.234375 -435.164062 59.140625 -480.96875 C 85.046875 -526.78125 120.523438 -561.703125 165.578125 -585.734375 C 210.640625 -609.765625 261.707031 -621.78125 318.78125 -621.78125 C 398.375 -621.78125 462.765625 -603.945312 511.953125 -568.28125 C 561.140625 -532.613281 585.734375 -480.234375 585.734375 -411.140625 C 585.734375 -374.347656 575.78125 -341.867188 555.875 -313.703125 C 535.976562 -285.546875 509.695312 -263.769531 477.03125 -248.375 C 444.375 -232.976562 409.269531 -225.28125 371.71875 -225.28125 C 340.925781 -225.28125 311.070312 -227.90625 282.15625 -233.15625 C 253.25 -238.414062 227.910156 -247.054688 206.140625 -259.078125 C 194.867188 -266.585938 186.601562 -267.148438 181.34375 -260.765625 C 176.09375 -254.378906 177.222656 -245.929688 184.734375 -235.421875 C 193.742188 -214.390625 208.195312 -195.613281 228.09375 -179.09375 C 248 -162.570312 270.71875 -149.617188 296.25 -140.234375 C 321.78125 -130.847656 347.3125 -126.15625 372.84375 -126.15625 C 402.132812 -126.15625 433.300781 -132.535156 466.34375 -145.296875 C 499.382812 -158.066406 526.414062 -174.21875 547.4375 -193.75 C 555.695312 -204.257812 564.519531 -207.820312 573.90625 -204.4375 C 583.300781 -201.0625 588.375 -191.863281 589.125 -176.84375 C 590.625 -160.320312 591.5625 -143.425781 591.9375 -126.15625 C 592.3125 -108.882812 592.875 -91.988281 593.625 -75.46875 C 593.625 -61.195312 588.742188 -51.0625 578.984375 -45.0625 C 551.191406 -26.28125 515.707031 -12.570312 472.53125 -3.9375 C 429.351562 4.695312 387.863281 9.015625 348.0625 9.015625 Z M 327.78125 -312.015625 C 360.070312 -312.015625 385.601562 -320.085938 404.375 -336.234375 C 423.15625 -352.378906 432.546875 -374.34375 432.546875 -402.125 C 432.546875 -431.414062 423.910156 -454.320312 406.640625 -470.84375 C 389.367188 -487.363281 360.832031 -495.625 321.03125 -495.625 C 298.5 -495.625 276.34375 -490.929688 254.5625 -481.546875 C 232.789062 -472.160156 214.957031 -458.832031 201.0625 -441.5625 C 187.175781 -424.289062 180.234375 -403.265625 180.234375 -378.484375 C 180.234375 -363.460938 188.492188 -350.878906 205.015625 -340.734375 C 221.535156 -330.597656 241.242188 -323.273438 264.140625 -318.765625 C 287.046875 -314.265625 308.257812 -312.015625 327.78125 -312.015625 Z M 327.78125 -312.015625 "/></g></g></g><g fill="#ffffff" fill-opacity="1"><g transform="translate(2134.106376, 2212.590906)"><g><path d="M 210.640625 9.015625 C 153.566406 9.015625 107.570312 -4.5 72.65625 -31.53125 C 37.738281 -58.570312 20.28125 -104.007812 20.28125 -167.84375 C 20.28125 -224.15625 40.363281 -268.644531 80.53125 -301.3125 C 120.707031 -333.976562 176.09375 -356.320312 246.6875 -368.34375 C 311.269531 -377.351562 356.703125 -386.550781 382.984375 -395.9375 C 409.265625 -405.320312 422.40625 -420.15625 422.40625 -440.4375 C 422.40625 -452.445312 414.144531 -463.707031 397.625 -474.21875 C 381.101562 -484.738281 352.941406 -490 313.140625 -490 C 279.347656 -490 244.425781 -484.738281 208.375 -474.21875 C 172.332031 -463.707031 140.796875 -446.4375 113.765625 -422.40625 C 105.503906 -410.394531 95.929688 -407.015625 85.046875 -412.265625 C 74.160156 -417.523438 69.09375 -428.414062 69.84375 -444.9375 C 70.59375 -453.195312 71.71875 -464.644531 73.21875 -479.28125 C 74.71875 -493.925781 76.40625 -508.757812 78.28125 -523.78125 C 80.164062 -538.800781 81.484375 -550.066406 82.234375 -557.578125 C 84.484375 -575.597656 91.988281 -587.238281 104.75 -592.5 C 167.082031 -612.019531 234.671875 -621.78125 307.515625 -621.78125 C 393.867188 -621.78125 460.890625 -603.191406 508.578125 -566.015625 C 556.265625 -528.847656 583.863281 -469.335938 591.375 -387.484375 C 593.625 -358.953125 595.875 -323.660156 598.125 -281.609375 C 600.382812 -239.554688 602.640625 -196.75 604.890625 -153.1875 C 607.140625 -109.632812 609.015625 -70.585938 610.515625 -36.046875 C 610.515625 -16.523438 600.003906 -4.882812 578.984375 -1.125 C 571.472656 1.125 562.082031 2.625 550.8125 3.375 C 539.550781 4.125 528.664062 4.5 518.15625 4.5 C 509.144531 4.5 497.691406 4.125 483.796875 3.375 C 469.898438 2.625 458.445312 1.125 449.4375 -1.125 C 439.675781 -2.625 431.789062 -6.941406 425.78125 -14.078125 C 419.78125 -21.210938 417.53125 -29.660156 419.03125 -39.421875 C 420.53125 -46.929688 422.21875 -56.691406 424.09375 -68.703125 C 425.96875 -80.722656 427.285156 -92.738281 428.046875 -104.75 C 429.546875 -115.269531 427.101562 -121.46875 420.71875 -123.34375 C 414.332031 -125.21875 408.890625 -121.273438 404.390625 -111.515625 C 387.117188 -74.722656 360.457031 -45.4375 324.40625 -23.65625 C 288.363281 -1.875 250.441406 9.015625 210.640625 9.015625 Z M 287.234375 -130.671875 C 306.003906 -130.671875 325.710938 -135.550781 346.359375 -145.3125 C 367.015625 -155.070312 384.476562 -169.148438 398.75 -187.546875 C 413.019531 -205.941406 420.15625 -228.285156 420.15625 -254.578125 C 420.15625 -272.597656 414.707031 -287.425781 403.8125 -299.0625 C 392.925781 -310.707031 374.34375 -316.53125 348.0625 -316.53125 C 321.78125 -316.53125 296.625 -311.644531 272.59375 -301.875 C 248.5625 -292.113281 229.035156 -278.785156 214.015625 -261.890625 C 198.992188 -244.992188 191.484375 -224.90625 191.484375 -201.625 C 191.484375 -176.09375 198.992188 -157.882812 214.015625 -147 C 229.035156 -136.113281 253.441406 -130.671875 287.234375 -130.671875 Z M 287.234375 -130.671875 "/></g></g></g><g fill="#ffffff" fill-opacity="1"><g transform="translate(2770.535739, 2212.590906)"><g><path d="M 125.03125 4.5 C 116.769531 4.5 105.691406 4.125 91.796875 3.375 C 77.910156 2.625 66.460938 1.5 57.453125 0 C 40.179688 -3.75 31.546875 -14.265625 31.546875 -31.546875 C 31.546875 -96.867188 31.921875 -164.632812 32.671875 -234.84375 C 33.421875 -305.0625 34.359375 -373.960938 35.484375 -441.546875 C 36.609375 -509.140625 38.484375 -572.410156 41.109375 -631.359375 C 43.742188 -690.304688 46.5625 -740.804688 49.5625 -782.859375 C 51.8125 -799.378906 61.195312 -808.769531 77.71875 -811.03125 C 85.976562 -812.53125 95.363281 -813.65625 105.875 -814.40625 C 116.394531 -815.15625 126.160156 -815.53125 135.171875 -815.53125 C 145.679688 -815.53125 158.070312 -815.15625 172.34375 -814.40625 C 186.613281 -813.65625 197.503906 -812.53125 205.015625 -811.03125 C 213.273438 -810.269531 219.84375 -806.695312 224.71875 -800.3125 C 229.601562 -793.9375 231.296875 -786.617188 229.796875 -778.359375 C 226.785156 -753.578125 222.835938 -721.660156 217.953125 -682.609375 C 213.078125 -643.554688 208.757812 -603.191406 205 -561.515625 C 201.25 -519.835938 199.375 -482.476562 199.375 -449.4375 C 199.375 -430.664062 204.253906 -415.269531 214.015625 -403.25 C 223.773438 -391.238281 235.414062 -385.234375 248.9375 -385.234375 C 283.476562 -385.234375 315.578125 -394.804688 345.234375 -413.953125 C 374.898438 -433.109375 399.492188 -457.890625 419.015625 -488.296875 C 438.546875 -518.710938 449.4375 -550.816406 451.6875 -584.609375 C 451.6875 -599.628906 460.328125 -609.019531 477.609375 -612.78125 C 488.117188 -614.28125 499.566406 -615.40625 511.953125 -616.15625 C 524.347656 -616.90625 535.050781 -617.28125 544.0625 -617.28125 C 552.320312 -617.28125 561.144531 -617.09375 570.53125 -616.71875 C 579.914062 -616.34375 589.867188 -615.03125 600.390625 -612.78125 C 619.160156 -609.019531 628.171875 -599.628906 627.421875 -584.609375 C 626.671875 -540.304688 619.535156 -501.257812 606.015625 -467.46875 C 592.492188 -433.675781 568.835938 -405.890625 535.046875 -384.109375 C 501.253906 -362.328125 453.570312 -346.554688 392 -336.796875 C 382.226562 -335.296875 377.34375 -331.914062 377.34375 -326.65625 C 377.34375 -321.40625 382.226562 -318.03125 392 -316.53125 C 459.582031 -308.269531 512.144531 -292.3125 549.6875 -268.65625 C 587.238281 -245 614.460938 -213.269531 631.359375 -173.46875 C 648.253906 -133.664062 658.957031 -84.851562 663.46875 -27.03125 C 664.21875 -12.007812 654.828125 -2.625 635.296875 1.125 C 624.035156 2.625 613.335938 3.5625 603.203125 3.9375 C 593.066406 4.3125 584.617188 4.5 577.859375 4.5 C 569.597656 4.5 557.769531 4.3125 542.375 3.9375 C 526.976562 3.5625 512.894531 2.625 500.125 1.125 C 482.851562 -2.625 473.46875 -11.632812 471.96875 -25.90625 C 470.46875 -61.945312 462.394531 -94.421875 447.75 -123.328125 C 433.101562 -152.242188 414.703125 -177.023438 392.546875 -197.671875 C 370.398438 -218.328125 346.375 -234.285156 320.46875 -245.546875 C 294.5625 -256.816406 269.21875 -262.453125 244.4375 -262.453125 C 232.414062 -262.453125 222.085938 -257.570312 213.453125 -247.8125 C 204.816406 -238.050781 200.125 -225.660156 199.375 -210.640625 C 198.625 -180.597656 199.1875 -151.304688 201.0625 -122.765625 C 202.9375 -94.234375 206.128906 -63.828125 210.640625 -31.546875 C 212.140625 -22.523438 210.257812 -15.195312 205 -9.5625 C 199.75 -3.9375 192.992188 -0.375 184.734375 1.125 C 176.472656 1.875 166.519531 2.625 154.875 3.375 C 143.238281 4.125 133.289062 4.5 125.03125 4.5 Z M 125.03125 4.5 "/></g></g></g><g fill="#ffffff" fill-opacity="1"><g transform="translate(3456.527646, 2212.590906)"><g><path d="M 121.65625 -671.34375 C 93.863281 -671.34375 71.144531 -678.851562 53.5 -693.875 C 35.851562 -708.894531 27.03125 -728.046875 27.03125 -751.328125 C 27.03125 -775.359375 35.851562 -794.878906 53.5 -809.890625 C 71.144531 -824.910156 93.863281 -832.421875 121.65625 -832.421875 C 150.1875 -832.421875 173.273438 -824.910156 190.921875 -809.890625 C 208.578125 -794.878906 217.40625 -775.359375 217.40625 -751.328125 C 217.40625 -728.046875 208.578125 -708.894531 190.921875 -693.875 C 173.273438 -678.851562 150.1875 -671.34375 121.65625 -671.34375 Z M 123.90625 4.5 C 117.894531 4.5 108.128906 4.3125 94.609375 3.9375 C 81.097656 3.5625 69.460938 2.25 59.703125 0 C 52.941406 -1.5 47.117188 -5.066406 42.234375 -10.703125 C 37.359375 -16.335938 34.921875 -23.660156 34.921875 -32.671875 C 34.921875 -98.003906 35.109375 -155.640625 35.484375 -205.578125 C 35.859375 -255.515625 36.421875 -301.320312 37.171875 -343 C 37.921875 -384.675781 39.046875 -424.847656 40.546875 -463.515625 C 42.046875 -502.191406 44.300781 -542.554688 47.3125 -584.609375 C 48.0625 -594.367188 50.3125 -601.3125 54.0625 -605.4375 C 57.820312 -609.570312 63.457031 -612.019531 70.96875 -612.78125 C 79.226562 -614.28125 88.800781 -615.40625 99.6875 -616.15625 C 110.570312 -616.90625 119.019531 -617.28125 125.03125 -617.28125 C 130.289062 -617.28125 137.800781 -616.90625 147.5625 -616.15625 C 157.320312 -615.40625 165.957031 -614.28125 173.46875 -612.78125 C 180.976562 -611.269531 186.609375 -608.632812 190.359375 -604.875 C 194.117188 -601.125 196.375 -594.367188 197.125 -584.609375 C 200.125 -542.554688 202.375 -502.191406 203.875 -463.515625 C 205.382812 -424.847656 206.515625 -384.675781 207.265625 -343 C 208.015625 -301.320312 208.578125 -255.320312 208.953125 -205 C 209.328125 -154.6875 209.515625 -96.867188 209.515625 -31.546875 C 209.515625 -22.523438 207.070312 -15.382812 202.1875 -10.125 C 197.3125 -4.875 191.492188 -1.5 184.734375 0 C 174.972656 1.5 163.894531 2.625 151.5 3.375 C 139.113281 4.125 129.914062 4.5 123.90625 4.5 Z M 123.90625 4.5 "/></g></g></g><g fill="#ffffff" fill-opacity="1"><g transform="translate(3700.961532, 2212.590906)"><g><path d="M 118.28125 4.5 C 108.507812 4.5 97.613281 4.125 85.59375 3.375 C 73.582031 2.625 63.070312 1.5 54.0625 0 C 47.3125 -1.5 41.304688 -4.875 36.046875 -10.125 C 30.785156 -15.382812 28.53125 -22.898438 29.28125 -32.671875 C 29.28125 -101.003906 29.46875 -160.328125 29.84375 -210.640625 C 30.21875 -260.953125 31.15625 -306.382812 32.65625 -346.9375 C 34.164062 -387.488281 36.046875 -426.535156 38.296875 -464.078125 C 40.546875 -501.628906 43.925781 -541.429688 48.4375 -583.484375 C 50.6875 -600.753906 58.945312 -610.519531 73.21875 -612.78125 C 81.476562 -614.28125 90.488281 -615.40625 100.25 -616.15625 C 110.007812 -616.90625 119.769531 -617.28125 129.53125 -617.28125 C 140.050781 -617.28125 150.566406 -616.90625 161.078125 -616.15625 C 171.585938 -615.40625 182.101562 -614.28125 192.625 -612.78125 C 200.125 -612.019531 206.316406 -608.820312 211.203125 -603.1875 C 216.085938 -597.5625 217.398438 -590.617188 215.140625 -582.359375 C 212.140625 -572.597656 209.703125 -562.832031 207.828125 -553.0625 C 205.953125 -543.300781 204.632812 -534.671875 203.875 -527.171875 C 203.125 -514.398438 205.191406 -507.453125 210.078125 -506.328125 C 214.960938 -505.203125 220.78125 -509.894531 227.53125 -520.40625 C 253.820312 -556.445312 282.171875 -582.351562 312.578125 -598.125 C 342.992188 -613.894531 377.726562 -621.78125 416.78125 -621.78125 C 462.582031 -621.78125 503.316406 -609.765625 538.984375 -585.734375 C 574.660156 -561.703125 603.195312 -527.347656 624.59375 -482.671875 C 646 -437.992188 657.828125 -384.863281 660.078125 -323.28125 C 661.585938 -294 662.90625 -265.648438 664.03125 -238.234375 C 665.15625 -210.828125 666.09375 -180.789062 666.84375 -148.125 C 667.59375 -115.457031 667.96875 -76.972656 667.96875 -32.671875 C 667.96875 -22.898438 665.523438 -15.382812 660.640625 -10.125 C 655.765625 -4.875 649.195312 -1.5 640.9375 0 C 631.925781 1.5 621.410156 2.625 609.390625 3.375 C 597.378906 4.125 588.367188 4.5 582.359375 4.5 C 575.597656 4.5 565.269531 4.125 551.375 3.375 C 537.488281 2.625 525.289062 1.5 514.78125 0 C 507.269531 -1.5 500.695312 -4.875 495.0625 -10.125 C 489.425781 -15.382812 486.984375 -22.523438 487.734375 -31.546875 C 490.742188 -57.828125 493 -86.546875 494.5 -117.703125 C 496 -148.867188 497.125 -179.09375 497.875 -208.375 C 498.625 -237.664062 498.625 -262.078125 497.875 -281.609375 C 497.125 -341.679688 483.234375 -389.550781 456.203125 -425.21875 C 429.171875 -460.894531 392.75 -478.734375 346.9375 -478.734375 C 303.382812 -478.734375 267.523438 -460.707031 239.359375 -424.65625 C 211.203125 -388.613281 197.125 -340.179688 197.125 -279.359375 C 197.875 -247.066406 199 -208.203125 200.5 -162.765625 C 202 -117.335938 205.378906 -73.597656 210.640625 -31.546875 C 212.140625 -22.523438 210.070312 -15.382812 204.4375 -10.125 C 198.8125 -4.875 192.242188 -1.5 184.734375 0 C 176.472656 1.5 165.582031 2.625 152.0625 3.375 C 138.550781 4.125 127.289062 4.5 118.28125 4.5 Z M 118.28125 4.5 "/></g></g></g><g fill="#ffffff" fill-opacity="1"><g transform="translate(4394.838214, 2212.590906)"><g><path d="M 324.40625 268.09375 C 296.625 268.09375 266.210938 267.148438 233.171875 265.265625 C 200.128906 263.390625 168.023438 260.382812 136.859375 256.25 C 105.691406 252.125 78.09375 246.304688 54.0625 238.796875 C 35.289062 231.285156 27.03125 218.144531 29.28125 199.375 L 39.421875 76.59375 C 40.921875 63.832031 46.550781 55.757812 56.3125 52.375 C 66.082031 49 74.722656 51.816406 82.234375 60.828125 C 108.515625 78.847656 140.238281 92.738281 177.40625 102.5 C 214.582031 112.257812 250.441406 117.140625 284.984375 117.140625 C 324.035156 117.140625 359.328125 109.816406 390.859375 95.171875 C 422.398438 80.535156 447.554688 60.078125 466.328125 33.796875 C 485.109375 7.515625 494.5 -23.273438 494.5 -58.578125 L 494.5 -77.71875 C 494.5 -91.988281 490.554688 -99.5 482.671875 -100.25 C 474.785156 -101 467.835938 -95.367188 461.828125 -83.359375 C 441.554688 -51.066406 414.710938 -27.410156 381.296875 -12.390625 C 347.878906 2.628906 310.519531 10.140625 269.21875 10.140625 C 222.65625 10.140625 180.972656 -1.875 144.171875 -25.90625 C 107.378906 -49.9375 78.46875 -85.414062 57.4375 -132.34375 C 36.414062 -179.28125 25.90625 -236.921875 25.90625 -305.265625 C 25.90625 -372.097656 36.414062 -428.976562 57.4375 -475.90625 C 78.46875 -522.84375 107.378906 -558.890625 144.171875 -584.046875 C 180.972656 -609.203125 222.65625 -621.78125 269.21875 -621.78125 C 309.769531 -621.78125 346.941406 -612.769531 380.734375 -594.75 C 414.523438 -576.726562 442.304688 -550.820312 464.078125 -517.03125 C 469.335938 -508.019531 474.40625 -504.078125 479.28125 -505.203125 C 484.164062 -506.328125 486.234375 -512.894531 485.484375 -524.90625 C 484.734375 -533.164062 483.609375 -542.550781 482.109375 -553.0625 C 480.609375 -563.582031 479.109375 -573.722656 477.609375 -583.484375 C 476.847656 -591.742188 478.910156 -598.3125 483.796875 -603.1875 C 488.679688 -608.070312 494.878906 -611.269531 502.390625 -612.78125 C 509.140625 -614.28125 518.332031 -615.40625 529.96875 -616.15625 C 541.613281 -616.90625 553.070312 -617.28125 564.34375 -617.28125 C 574.851562 -617.28125 584.988281 -616.90625 594.75 -616.15625 C 604.507812 -615.40625 613.144531 -614.28125 620.65625 -612.78125 C 635.675781 -609.019531 644.3125 -599.628906 646.5625 -584.609375 C 654.070312 -518.523438 658.578125 -439.488281 660.078125 -347.5 C 661.585938 -255.507812 662.34375 -154.695312 662.34375 -45.0625 C 662.34375 31.539062 647.882812 92.742188 618.96875 138.546875 C 590.0625 184.359375 550.257812 217.398438 499.5625 237.671875 C 448.875 257.953125 390.488281 268.09375 324.40625 268.09375 Z M 337.921875 -122.78125 C 380.722656 -122.78125 416.578125 -139.113281 445.484375 -171.78125 C 474.398438 -204.445312 488.859375 -249.691406 488.859375 -307.515625 C 488.859375 -363.085938 474.78125 -406.640625 446.625 -438.171875 C 418.46875 -469.710938 382.234375 -485.859375 337.921875 -486.609375 C 293.617188 -486.609375 257.382812 -470.648438 229.21875 -438.734375 C 201.0625 -406.828125 186.984375 -363.085938 186.984375 -307.515625 C 186.984375 -249.691406 201.25 -204.445312 229.78125 -171.78125 C 258.320312 -139.113281 294.367188 -122.78125 337.921875 -122.78125 Z M 337.921875 -122.78125 "/></g></g></g></svg>